<svg version="1.1" id="Dimianni_Logo" xmlns="http://www.w3.org/2000/svg" x="0" y="0" viewBox="0 0 509.9 100" xml:space="preserve"><path d="M106.6 18.5H119v63h-12.4v-63zm100.1 0v63h-12.3V40.6l-17.7 29.2h-1.4l-17.7-29.2v40.8h-12.4v-63H158l18 29.9 18-29.8h12.7zm26.1 0h12.4v63h-12.4v-63zm75 63L304 70.2h-25.1l-3.8 11.3h-13.4l22-63h15.4l22.1 63h-13.4zm-24.9-23h17.3l-8.6-25.7-8.7 25.7zm91.3-40h12.4v63h-9.5l-27-38.5v38.5h-12.4v-63h9.5l27 38.4V18.5zm75 0h12.4v63h-9.5l-27-38.5v38.5h-12.4v-63h9.5l27 38.4V18.5zm38.5 0h12.4v63h-12.4v-63zm-446-8.7c11 0 20.3 3.9 27.7 11.6 7.4 7.7 11.1 17.3 11.1 28.6s-3.7 20.9-11.1 28.6C62 86.4 52.8 90.3 41.7 90.3h-32V9.8h32zm0 65.3c7 0 12.7-2.3 17-7 4.4-4.6 6.6-10.7 6.6-18.1 0-7.4-2.2-13.5-6.6-18.1-4.4-4.6-10-7-17-7H25.6V75h16.1z" fill="#fff"/></svg>